<mxfile host="app.diagrams.net" modified="2021-05-30T14:08:58.793Z" agent="5.0 (Windows NT 10.0; Win64; x64) AppleWebKit/537.36 (KHTML, like Gecko) Chrome/89.0.4389.82 Safari/537.36" etag="7hXP7tsC0idvTaL4CwA_" version="14.6.13" type="github">
  <diagram id="S1HCA3p1xup6eBR9u95i" name="Page-1">
    <mxGraphModel dx="1422" dy="802" grid="1" gridSize="10" guides="1" tooltips="1" connect="1" arrows="1" fold="1" page="1" pageScale="1" pageWidth="3300" pageHeight="4681" math="0" shadow="0">
      <root>
        <mxCell id="0" />
        <mxCell id="1" parent="0" />
        <mxCell id="M6Pffl5P6jO25ANAhp50-1" value="" style="shape=table;html=1;whiteSpace=wrap;startSize=0;container=1;collapsible=0;childLayout=tableLayout;" vertex="1" parent="1">
          <mxGeometry x="510" y="270" width="330" height="320" as="geometry" />
        </mxCell>
        <mxCell id="M6Pffl5P6jO25ANAhp50-2" value="" style="shape=partialRectangle;html=1;whiteSpace=wrap;collapsible=0;dropTarget=0;pointerEvents=0;fillColor=none;top=0;left=0;bottom=0;right=0;points=[[0,0.5],[1,0.5]];portConstraint=eastwest;" vertex="1" parent="M6Pffl5P6jO25ANAhp50-1">
          <mxGeometry width="330" height="46" as="geometry" />
        </mxCell>
        <mxCell id="M6Pffl5P6jO25ANAhp50-3" value="" style="shape=partialRectangle;html=1;whiteSpace=wrap;connectable=0;overflow=hidden;top=0;left=0;bottom=0;right=0;strokeColor=#b85450;fillColor=#EA6B66;" vertex="1" parent="M6Pffl5P6jO25ANAhp50-2">
          <mxGeometry width="47" height="46" as="geometry" />
        </mxCell>
        <mxCell id="M6Pffl5P6jO25ANAhp50-4" value="" style="shape=partialRectangle;html=1;whiteSpace=wrap;connectable=0;overflow=hidden;fillColor=#f5f5f5;top=0;left=0;bottom=0;right=0;strokeColor=#666666;fontColor=#333333;" vertex="1" parent="M6Pffl5P6jO25ANAhp50-2">
          <mxGeometry x="47" width="44" height="46" as="geometry" />
        </mxCell>
        <mxCell id="M6Pffl5P6jO25ANAhp50-5" value="" style="shape=partialRectangle;html=1;whiteSpace=wrap;connectable=0;overflow=hidden;top=0;left=0;bottom=0;right=0;" vertex="1" parent="M6Pffl5P6jO25ANAhp50-2">
          <mxGeometry x="91" width="47" height="46" as="geometry" />
        </mxCell>
        <mxCell id="M6Pffl5P6jO25ANAhp50-6" value="" style="shape=partialRectangle;html=1;whiteSpace=wrap;connectable=0;overflow=hidden;top=0;left=0;bottom=0;right=0;fillColor=#f5f5f5;strokeColor=#666666;fontColor=#333333;" vertex="1" parent="M6Pffl5P6jO25ANAhp50-2">
          <mxGeometry x="138" width="44" height="46" as="geometry" />
        </mxCell>
        <mxCell id="M6Pffl5P6jO25ANAhp50-7" value="" style="shape=partialRectangle;html=1;whiteSpace=wrap;connectable=0;overflow=hidden;top=0;left=0;bottom=0;right=0;strokeColor=#d6b656;fillColor=#D5E8D4;" vertex="1" parent="M6Pffl5P6jO25ANAhp50-2">
          <mxGeometry x="182" width="47" height="46" as="geometry" />
        </mxCell>
        <mxCell id="M6Pffl5P6jO25ANAhp50-8" value="" style="shape=partialRectangle;html=1;whiteSpace=wrap;connectable=0;overflow=hidden;top=0;left=0;bottom=0;right=0;strokeColor=#FFE6CC;fillColor=#E6FFCC;" vertex="1" parent="M6Pffl5P6jO25ANAhp50-2">
          <mxGeometry x="229" width="51" height="46" as="geometry" />
        </mxCell>
        <mxCell id="M6Pffl5P6jO25ANAhp50-9" value="" style="shape=partialRectangle;html=1;whiteSpace=wrap;connectable=0;overflow=hidden;top=0;left=0;bottom=0;right=0;strokeColor=#FFFFCC;fillColor=#FFFFCC;" vertex="1" parent="M6Pffl5P6jO25ANAhp50-2">
          <mxGeometry x="280" width="50" height="46" as="geometry" />
        </mxCell>
        <mxCell id="M6Pffl5P6jO25ANAhp50-10" value="" style="shape=partialRectangle;html=1;whiteSpace=wrap;collapsible=0;dropTarget=0;pointerEvents=0;fillColor=none;top=0;left=0;bottom=0;right=0;points=[[0,0.5],[1,0.5]];portConstraint=eastwest;" vertex="1" parent="M6Pffl5P6jO25ANAhp50-1">
          <mxGeometry y="46" width="330" height="45" as="geometry" />
        </mxCell>
        <mxCell id="M6Pffl5P6jO25ANAhp50-11" value="" style="shape=partialRectangle;html=1;whiteSpace=wrap;connectable=0;overflow=hidden;fillColor=none;top=0;left=0;bottom=0;right=0;" vertex="1" parent="M6Pffl5P6jO25ANAhp50-10">
          <mxGeometry width="47" height="45" as="geometry" />
        </mxCell>
        <mxCell id="M6Pffl5P6jO25ANAhp50-12" value="" style="shape=partialRectangle;html=1;whiteSpace=wrap;connectable=0;overflow=hidden;fillColor=none;top=0;left=0;bottom=0;right=0;" vertex="1" parent="M6Pffl5P6jO25ANAhp50-10">
          <mxGeometry x="47" width="44" height="45" as="geometry" />
        </mxCell>
        <mxCell id="M6Pffl5P6jO25ANAhp50-13" value="" style="shape=partialRectangle;html=1;whiteSpace=wrap;connectable=0;overflow=hidden;fillColor=none;top=0;left=0;bottom=0;right=0;" vertex="1" parent="M6Pffl5P6jO25ANAhp50-10">
          <mxGeometry x="91" width="47" height="45" as="geometry" />
        </mxCell>
        <mxCell id="M6Pffl5P6jO25ANAhp50-14" value="" style="shape=partialRectangle;html=1;whiteSpace=wrap;connectable=0;overflow=hidden;fillColor=none;top=0;left=0;bottom=0;right=0;" vertex="1" parent="M6Pffl5P6jO25ANAhp50-10">
          <mxGeometry x="138" width="44" height="45" as="geometry" />
        </mxCell>
        <mxCell id="M6Pffl5P6jO25ANAhp50-15" value="" style="shape=partialRectangle;html=1;whiteSpace=wrap;connectable=0;overflow=hidden;fillColor=none;top=0;left=0;bottom=0;right=0;" vertex="1" parent="M6Pffl5P6jO25ANAhp50-10">
          <mxGeometry x="182" width="47" height="45" as="geometry" />
        </mxCell>
        <mxCell id="M6Pffl5P6jO25ANAhp50-16" value="" style="shape=partialRectangle;html=1;whiteSpace=wrap;connectable=0;overflow=hidden;fillColor=none;top=0;left=0;bottom=0;right=0;" vertex="1" parent="M6Pffl5P6jO25ANAhp50-10">
          <mxGeometry x="229" width="51" height="45" as="geometry" />
        </mxCell>
        <mxCell id="M6Pffl5P6jO25ANAhp50-17" value="" style="shape=partialRectangle;html=1;whiteSpace=wrap;connectable=0;overflow=hidden;fillColor=none;top=0;left=0;bottom=0;right=0;" vertex="1" parent="M6Pffl5P6jO25ANAhp50-10">
          <mxGeometry x="280" width="50" height="45" as="geometry" />
        </mxCell>
        <mxCell id="M6Pffl5P6jO25ANAhp50-18" value="" style="shape=partialRectangle;html=1;whiteSpace=wrap;collapsible=0;dropTarget=0;pointerEvents=0;fillColor=none;top=0;left=0;bottom=0;right=0;points=[[0,0.5],[1,0.5]];portConstraint=eastwest;" vertex="1" parent="M6Pffl5P6jO25ANAhp50-1">
          <mxGeometry y="91" width="330" height="46" as="geometry" />
        </mxCell>
        <mxCell id="M6Pffl5P6jO25ANAhp50-19" value="" style="shape=partialRectangle;html=1;whiteSpace=wrap;connectable=0;overflow=hidden;fillColor=none;top=0;left=0;bottom=0;right=0;" vertex="1" parent="M6Pffl5P6jO25ANAhp50-18">
          <mxGeometry width="47" height="46" as="geometry" />
        </mxCell>
        <mxCell id="M6Pffl5P6jO25ANAhp50-20" value="" style="shape=partialRectangle;html=1;whiteSpace=wrap;connectable=0;overflow=hidden;fillColor=none;top=0;left=0;bottom=0;right=0;" vertex="1" parent="M6Pffl5P6jO25ANAhp50-18">
          <mxGeometry x="47" width="44" height="46" as="geometry" />
        </mxCell>
        <mxCell id="M6Pffl5P6jO25ANAhp50-21" value="" style="shape=partialRectangle;html=1;whiteSpace=wrap;connectable=0;overflow=hidden;fillColor=none;top=0;left=0;bottom=0;right=0;" vertex="1" parent="M6Pffl5P6jO25ANAhp50-18">
          <mxGeometry x="91" width="47" height="46" as="geometry" />
        </mxCell>
        <mxCell id="M6Pffl5P6jO25ANAhp50-22" value="" style="shape=partialRectangle;html=1;whiteSpace=wrap;connectable=0;overflow=hidden;fillColor=none;top=0;left=0;bottom=0;right=0;" vertex="1" parent="M6Pffl5P6jO25ANAhp50-18">
          <mxGeometry x="138" width="44" height="46" as="geometry" />
        </mxCell>
        <mxCell id="M6Pffl5P6jO25ANAhp50-23" value="" style="shape=partialRectangle;html=1;whiteSpace=wrap;connectable=0;overflow=hidden;fillColor=none;top=0;left=0;bottom=0;right=0;" vertex="1" parent="M6Pffl5P6jO25ANAhp50-18">
          <mxGeometry x="182" width="47" height="46" as="geometry" />
        </mxCell>
        <mxCell id="M6Pffl5P6jO25ANAhp50-24" value="" style="shape=partialRectangle;html=1;whiteSpace=wrap;connectable=0;overflow=hidden;fillColor=none;top=0;left=0;bottom=0;right=0;" vertex="1" parent="M6Pffl5P6jO25ANAhp50-18">
          <mxGeometry x="229" width="51" height="46" as="geometry" />
        </mxCell>
        <mxCell id="M6Pffl5P6jO25ANAhp50-25" value="" style="shape=partialRectangle;html=1;whiteSpace=wrap;connectable=0;overflow=hidden;fillColor=none;top=0;left=0;bottom=0;right=0;" vertex="1" parent="M6Pffl5P6jO25ANAhp50-18">
          <mxGeometry x="280" width="50" height="46" as="geometry" />
        </mxCell>
        <mxCell id="M6Pffl5P6jO25ANAhp50-26" value="" style="shape=partialRectangle;html=1;whiteSpace=wrap;collapsible=0;dropTarget=0;pointerEvents=0;fillColor=none;top=0;left=0;bottom=0;right=0;points=[[0,0.5],[1,0.5]];portConstraint=eastwest;" vertex="1" parent="M6Pffl5P6jO25ANAhp50-1">
          <mxGeometry y="137" width="330" height="46" as="geometry" />
        </mxCell>
        <mxCell id="M6Pffl5P6jO25ANAhp50-27" value="" style="shape=partialRectangle;html=1;whiteSpace=wrap;connectable=0;overflow=hidden;fillColor=none;top=0;left=0;bottom=0;right=0;" vertex="1" parent="M6Pffl5P6jO25ANAhp50-26">
          <mxGeometry width="47" height="46" as="geometry" />
        </mxCell>
        <mxCell id="M6Pffl5P6jO25ANAhp50-28" value="" style="shape=partialRectangle;html=1;whiteSpace=wrap;connectable=0;overflow=hidden;fillColor=none;top=0;left=0;bottom=0;right=0;" vertex="1" parent="M6Pffl5P6jO25ANAhp50-26">
          <mxGeometry x="47" width="44" height="46" as="geometry" />
        </mxCell>
        <mxCell id="M6Pffl5P6jO25ANAhp50-29" value="" style="shape=partialRectangle;html=1;whiteSpace=wrap;connectable=0;overflow=hidden;fillColor=none;top=0;left=0;bottom=0;right=0;" vertex="1" parent="M6Pffl5P6jO25ANAhp50-26">
          <mxGeometry x="91" width="47" height="46" as="geometry" />
        </mxCell>
        <mxCell id="M6Pffl5P6jO25ANAhp50-30" value="" style="shape=partialRectangle;html=1;whiteSpace=wrap;connectable=0;overflow=hidden;fillColor=none;top=0;left=0;bottom=0;right=0;" vertex="1" parent="M6Pffl5P6jO25ANAhp50-26">
          <mxGeometry x="138" width="44" height="46" as="geometry" />
        </mxCell>
        <mxCell id="M6Pffl5P6jO25ANAhp50-31" value="" style="shape=partialRectangle;html=1;whiteSpace=wrap;connectable=0;overflow=hidden;fillColor=none;top=0;left=0;bottom=0;right=0;" vertex="1" parent="M6Pffl5P6jO25ANAhp50-26">
          <mxGeometry x="182" width="47" height="46" as="geometry" />
        </mxCell>
        <mxCell id="M6Pffl5P6jO25ANAhp50-32" value="" style="shape=partialRectangle;html=1;whiteSpace=wrap;connectable=0;overflow=hidden;fillColor=none;top=0;left=0;bottom=0;right=0;" vertex="1" parent="M6Pffl5P6jO25ANAhp50-26">
          <mxGeometry x="229" width="51" height="46" as="geometry" />
        </mxCell>
        <mxCell id="M6Pffl5P6jO25ANAhp50-33" value="" style="shape=partialRectangle;html=1;whiteSpace=wrap;connectable=0;overflow=hidden;fillColor=none;top=0;left=0;bottom=0;right=0;" vertex="1" parent="M6Pffl5P6jO25ANAhp50-26">
          <mxGeometry x="280" width="50" height="46" as="geometry" />
        </mxCell>
        <mxCell id="M6Pffl5P6jO25ANAhp50-34" value="" style="shape=partialRectangle;html=1;whiteSpace=wrap;collapsible=0;dropTarget=0;pointerEvents=0;fillColor=none;top=0;left=0;bottom=0;right=0;points=[[0,0.5],[1,0.5]];portConstraint=eastwest;" vertex="1" parent="M6Pffl5P6jO25ANAhp50-1">
          <mxGeometry y="183" width="330" height="46" as="geometry" />
        </mxCell>
        <mxCell id="M6Pffl5P6jO25ANAhp50-35" value="" style="shape=partialRectangle;html=1;whiteSpace=wrap;connectable=0;overflow=hidden;fillColor=none;top=0;left=0;bottom=0;right=0;" vertex="1" parent="M6Pffl5P6jO25ANAhp50-34">
          <mxGeometry width="47" height="46" as="geometry" />
        </mxCell>
        <mxCell id="M6Pffl5P6jO25ANAhp50-36" value="" style="shape=partialRectangle;html=1;whiteSpace=wrap;connectable=0;overflow=hidden;fillColor=none;top=0;left=0;bottom=0;right=0;" vertex="1" parent="M6Pffl5P6jO25ANAhp50-34">
          <mxGeometry x="47" width="44" height="46" as="geometry" />
        </mxCell>
        <mxCell id="M6Pffl5P6jO25ANAhp50-37" value="" style="shape=partialRectangle;html=1;whiteSpace=wrap;connectable=0;overflow=hidden;fillColor=none;top=0;left=0;bottom=0;right=0;" vertex="1" parent="M6Pffl5P6jO25ANAhp50-34">
          <mxGeometry x="91" width="47" height="46" as="geometry" />
        </mxCell>
        <mxCell id="M6Pffl5P6jO25ANAhp50-38" value="" style="shape=partialRectangle;html=1;whiteSpace=wrap;connectable=0;overflow=hidden;fillColor=none;top=0;left=0;bottom=0;right=0;" vertex="1" parent="M6Pffl5P6jO25ANAhp50-34">
          <mxGeometry x="138" width="44" height="46" as="geometry" />
        </mxCell>
        <mxCell id="M6Pffl5P6jO25ANAhp50-39" value="" style="shape=partialRectangle;html=1;whiteSpace=wrap;connectable=0;overflow=hidden;fillColor=none;top=0;left=0;bottom=0;right=0;" vertex="1" parent="M6Pffl5P6jO25ANAhp50-34">
          <mxGeometry x="182" width="47" height="46" as="geometry" />
        </mxCell>
        <mxCell id="M6Pffl5P6jO25ANAhp50-40" value="" style="shape=partialRectangle;html=1;whiteSpace=wrap;connectable=0;overflow=hidden;fillColor=none;top=0;left=0;bottom=0;right=0;" vertex="1" parent="M6Pffl5P6jO25ANAhp50-34">
          <mxGeometry x="229" width="51" height="46" as="geometry" />
        </mxCell>
        <mxCell id="M6Pffl5P6jO25ANAhp50-41" value="" style="shape=partialRectangle;html=1;whiteSpace=wrap;connectable=0;overflow=hidden;fillColor=none;top=0;left=0;bottom=0;right=0;" vertex="1" parent="M6Pffl5P6jO25ANAhp50-34">
          <mxGeometry x="280" width="50" height="46" as="geometry" />
        </mxCell>
        <mxCell id="M6Pffl5P6jO25ANAhp50-42" value="" style="shape=partialRectangle;html=1;whiteSpace=wrap;collapsible=0;dropTarget=0;pointerEvents=0;fillColor=none;top=0;left=0;bottom=0;right=0;points=[[0,0.5],[1,0.5]];portConstraint=eastwest;" vertex="1" parent="M6Pffl5P6jO25ANAhp50-1">
          <mxGeometry y="229" width="330" height="45" as="geometry" />
        </mxCell>
        <mxCell id="M6Pffl5P6jO25ANAhp50-43" value="" style="shape=partialRectangle;html=1;whiteSpace=wrap;connectable=0;overflow=hidden;fillColor=none;top=0;left=0;bottom=0;right=0;" vertex="1" parent="M6Pffl5P6jO25ANAhp50-42">
          <mxGeometry width="47" height="45" as="geometry" />
        </mxCell>
        <mxCell id="M6Pffl5P6jO25ANAhp50-44" value="" style="shape=partialRectangle;html=1;whiteSpace=wrap;connectable=0;overflow=hidden;fillColor=none;top=0;left=0;bottom=0;right=0;" vertex="1" parent="M6Pffl5P6jO25ANAhp50-42">
          <mxGeometry x="47" width="44" height="45" as="geometry" />
        </mxCell>
        <mxCell id="M6Pffl5P6jO25ANAhp50-45" value="" style="shape=partialRectangle;html=1;whiteSpace=wrap;connectable=0;overflow=hidden;fillColor=none;top=0;left=0;bottom=0;right=0;" vertex="1" parent="M6Pffl5P6jO25ANAhp50-42">
          <mxGeometry x="91" width="47" height="45" as="geometry" />
        </mxCell>
        <mxCell id="M6Pffl5P6jO25ANAhp50-46" value="" style="shape=partialRectangle;html=1;whiteSpace=wrap;connectable=0;overflow=hidden;fillColor=none;top=0;left=0;bottom=0;right=0;" vertex="1" parent="M6Pffl5P6jO25ANAhp50-42">
          <mxGeometry x="138" width="44" height="45" as="geometry" />
        </mxCell>
        <mxCell id="M6Pffl5P6jO25ANAhp50-47" value="" style="shape=partialRectangle;html=1;whiteSpace=wrap;connectable=0;overflow=hidden;fillColor=none;top=0;left=0;bottom=0;right=0;" vertex="1" parent="M6Pffl5P6jO25ANAhp50-42">
          <mxGeometry x="182" width="47" height="45" as="geometry" />
        </mxCell>
        <mxCell id="M6Pffl5P6jO25ANAhp50-48" value="" style="shape=partialRectangle;html=1;whiteSpace=wrap;connectable=0;overflow=hidden;fillColor=none;top=0;left=0;bottom=0;right=0;" vertex="1" parent="M6Pffl5P6jO25ANAhp50-42">
          <mxGeometry x="229" width="51" height="45" as="geometry" />
        </mxCell>
        <mxCell id="M6Pffl5P6jO25ANAhp50-49" value="" style="shape=partialRectangle;html=1;whiteSpace=wrap;connectable=0;overflow=hidden;fillColor=none;top=0;left=0;bottom=0;right=0;" vertex="1" parent="M6Pffl5P6jO25ANAhp50-42">
          <mxGeometry x="280" width="50" height="45" as="geometry" />
        </mxCell>
        <mxCell id="M6Pffl5P6jO25ANAhp50-50" value="" style="shape=partialRectangle;html=1;whiteSpace=wrap;collapsible=0;dropTarget=0;pointerEvents=0;fillColor=none;top=0;left=0;bottom=0;right=0;points=[[0,0.5],[1,0.5]];portConstraint=eastwest;" vertex="1" parent="M6Pffl5P6jO25ANAhp50-1">
          <mxGeometry y="274" width="330" height="46" as="geometry" />
        </mxCell>
        <mxCell id="M6Pffl5P6jO25ANAhp50-51" value="" style="shape=partialRectangle;html=1;whiteSpace=wrap;connectable=0;overflow=hidden;fillColor=none;top=0;left=0;bottom=0;right=0;" vertex="1" parent="M6Pffl5P6jO25ANAhp50-50">
          <mxGeometry width="47" height="46" as="geometry" />
        </mxCell>
        <mxCell id="M6Pffl5P6jO25ANAhp50-52" value="" style="shape=partialRectangle;html=1;whiteSpace=wrap;connectable=0;overflow=hidden;fillColor=none;top=0;left=0;bottom=0;right=0;" vertex="1" parent="M6Pffl5P6jO25ANAhp50-50">
          <mxGeometry x="47" width="44" height="46" as="geometry" />
        </mxCell>
        <mxCell id="M6Pffl5P6jO25ANAhp50-53" value="" style="shape=partialRectangle;html=1;whiteSpace=wrap;connectable=0;overflow=hidden;fillColor=none;top=0;left=0;bottom=0;right=0;" vertex="1" parent="M6Pffl5P6jO25ANAhp50-50">
          <mxGeometry x="91" width="47" height="46" as="geometry" />
        </mxCell>
        <mxCell id="M6Pffl5P6jO25ANAhp50-54" value="" style="shape=partialRectangle;html=1;whiteSpace=wrap;connectable=0;overflow=hidden;fillColor=none;top=0;left=0;bottom=0;right=0;" vertex="1" parent="M6Pffl5P6jO25ANAhp50-50">
          <mxGeometry x="138" width="44" height="46" as="geometry" />
        </mxCell>
        <mxCell id="M6Pffl5P6jO25ANAhp50-55" value="" style="shape=partialRectangle;html=1;whiteSpace=wrap;connectable=0;overflow=hidden;fillColor=none;top=0;left=0;bottom=0;right=0;" vertex="1" parent="M6Pffl5P6jO25ANAhp50-50">
          <mxGeometry x="182" width="47" height="46" as="geometry" />
        </mxCell>
        <mxCell id="M6Pffl5P6jO25ANAhp50-56" value="" style="shape=partialRectangle;html=1;whiteSpace=wrap;connectable=0;overflow=hidden;fillColor=none;top=0;left=0;bottom=0;right=0;" vertex="1" parent="M6Pffl5P6jO25ANAhp50-50">
          <mxGeometry x="229" width="51" height="46" as="geometry" />
        </mxCell>
        <mxCell id="M6Pffl5P6jO25ANAhp50-57" value="" style="shape=partialRectangle;html=1;whiteSpace=wrap;connectable=0;overflow=hidden;fillColor=none;top=0;left=0;bottom=0;right=0;" vertex="1" parent="M6Pffl5P6jO25ANAhp50-50">
          <mxGeometry x="280" width="50" height="46" as="geometry" />
        </mxCell>
      </root>
    </mxGraphModel>
  </diagram>
</mxfile>
